
<global>
</global>

<group>
group_label=Group
</group>

<group>
group_label=MainHit_RR1
seq_length=10
seq_position=1

<region>
hivel=100
key=D3
loop_mode=one_shot
lovel=76
sample=Show_Style_Tenor_Solo_Hit_F_RR_1.opus
</region>

<region>
hivel=127
key=D3
loop_mode=one_shot
lovel=101
sample=Show_Style_Tenor_Solo_Hit_FF_RR_1.opus
</region>

<region>
hivel=75
key=D3
loop_mode=one_shot
lovel=51
sample=Show_Style_Tenor_Solo_Hit_MF_RR_1.opus
</region>

<region>
hivel=50
key=D3
loop_mode=one_shot
lovel=26
sample=Show_Style_Tenor_Solo_Hit_MP_RR_1.opus
</region>

<region>
hivel=25
key=D3
loop_mode=one_shot
lovel=0
sample=Show_Style_Tenor_Solo_Hit_P_RR_1.opus
</region>
</group>

<group>
group_label=MainHit_RR2
seq_length=10
seq_position=2

<region>
hivel=100
key=D3
loop_mode=one_shot
lovel=76
sample=Show_Style_Tenor_Solo_Hit_F_RR_2.opus
</region>

<region>
hivel=127
key=D3
loop_mode=one_shot
lovel=101
sample=Show_Style_Tenor_Solo_Hit_FF_RR_2.opus
</region>

<region>
hivel=75
key=D3
loop_mode=one_shot
lovel=51
sample=Show_Style_Tenor_Solo_Hit_MF_RR_2.opus
</region>

<region>
hivel=50
key=D3
loop_mode=one_shot
lovel=26
sample=Show_Style_Tenor_Solo_Hit_MP_RR_2.opus
</region>

<region>
hivel=25
key=D3
loop_mode=one_shot
lovel=0
sample=Show_Style_Tenor_Solo_Hit_P_RR_2.opus
</region>
</group>

<group>
group_label=MainHit_RR3
seq_length=10
seq_position=3

<region>
hivel=100
key=D3
loop_mode=one_shot
lovel=76
sample=Show_Style_Tenor_Solo_Hit_F_RR_3.opus
</region>

<region>
hivel=127
key=D3
loop_mode=one_shot
lovel=101
sample=Show_Style_Tenor_Solo_Hit_FF_RR_3.opus
</region>

<region>
hivel=75
key=D3
loop_mode=one_shot
lovel=51
sample=Show_Style_Tenor_Solo_Hit_MF_RR_3.opus
</region>

<region>
hivel=50
key=D3
loop_mode=one_shot
lovel=26
sample=Show_Style_Tenor_Solo_Hit_MP_RR_3.opus
</region>

<region>
hivel=25
key=D3
loop_mode=one_shot
lovel=0
sample=Show_Style_Tenor_Solo_Hit_P_RR_3.opus
</region>
</group>

<group>
group_label=MainHit_RR4
seq_length=10
seq_position=4

<region>
hivel=100
key=D3
loop_mode=one_shot
lovel=76
sample=Show_Style_Tenor_Solo_Hit_F_RR_4.opus
</region>

<region>
hivel=127
key=D3
loop_mode=one_shot
lovel=101
sample=Show_Style_Tenor_Solo_Hit_FF_RR_4.opus
</region>

<region>
hivel=75
key=D3
loop_mode=one_shot
lovel=51
sample=Show_Style_Tenor_Solo_Hit_MF_RR_4.opus
</region>

<region>
hivel=50
key=D3
loop_mode=one_shot
lovel=26
sample=Show_Style_Tenor_Solo_Hit_MP_RR_4.opus
</region>

<region>
hivel=25
key=D3
loop_mode=one_shot
lovel=0
sample=Show_Style_Tenor_Solo_Hit_P_RR_4.opus
</region>
</group>

<group>
group_label=MainHit_RR5
seq_length=10
seq_position=5

<region>
hivel=100
key=D3
loop_mode=one_shot
lovel=76
sample=Show_Style_Tenor_Solo_Hit_F_RR_5.opus
</region>

<region>
hivel=127
key=D3
loop_mode=one_shot
lovel=101
sample=Show_Style_Tenor_Solo_Hit_FF_RR_5.opus
</region>

<region>
hivel=75
key=D3
loop_mode=one_shot
lovel=51
sample=Show_Style_Tenor_Solo_Hit_MF_RR_5.opus
</region>

<region>
hivel=50
key=D3
loop_mode=one_shot
lovel=26
sample=Show_Style_Tenor_Solo_Hit_MP_RR_5.opus
</region>

<region>
hivel=25
key=D3
loop_mode=one_shot
lovel=0
sample=Show_Style_Tenor_Solo_Hit_P_RR_5.opus
</region>
</group>

<group>
group_label=MainHit_RR6
seq_length=10
seq_position=6

<region>
hivel=100
key=D3
loop_mode=one_shot
lovel=76
sample=Show_Style_Tenor_Solo_Hit_F_RR_6.opus
</region>

<region>
hivel=127
key=D3
loop_mode=one_shot
lovel=101
sample=Show_Style_Tenor_Solo_Hit_FF_RR_6.opus
</region>

<region>
hivel=75
key=D3
loop_mode=one_shot
lovel=51
sample=Show_Style_Tenor_Solo_Hit_MF_RR_6.opus
</region>

<region>
hivel=50
key=D3
loop_mode=one_shot
lovel=26
sample=Show_Style_Tenor_Solo_Hit_MP_RR_6.opus
</region>

<region>
hivel=25
key=D3
loop_mode=one_shot
lovel=0
sample=Show_Style_Tenor_Solo_Hit_P_RR_6.opus
</region>
</group>

<group>
group_label=MainHit_RR7
seq_length=10
seq_position=7

<region>
hivel=100
key=D3
loop_mode=one_shot
lovel=76
sample=Show_Style_Tenor_Solo_Hit_F_RR_7.opus
</region>

<region>
hivel=127
key=D3
loop_mode=one_shot
lovel=101
sample=Show_Style_Tenor_Solo_Hit_FF_RR_7.opus
</region>

<region>
hivel=75
key=D3
loop_mode=one_shot
lovel=51
sample=Show_Style_Tenor_Solo_Hit_MF_RR_7.opus
</region>

<region>
hivel=50
key=D3
loop_mode=one_shot
lovel=26
sample=Show_Style_Tenor_Solo_Hit_MP_RR_7.opus
</region>

<region>
hivel=25
key=D3
loop_mode=one_shot
lovel=0
sample=Show_Style_Tenor_Solo_Hit_P_RR_7.opus
</region>
</group>

<group>
group_label=MainHit_RR8
seq_length=10
seq_position=8

<region>
hivel=100
key=D3
loop_mode=one_shot
lovel=76
sample=Show_Style_Tenor_Solo_Hit_F_RR_8.opus
</region>

<region>
hivel=127
key=D3
loop_mode=one_shot
lovel=101
sample=Show_Style_Tenor_Solo_Hit_FF_RR_8.opus
</region>

<region>
hivel=75
key=D3
loop_mode=one_shot
lovel=51
sample=Show_Style_Tenor_Solo_Hit_MF_RR_8.opus
</region>

<region>
hivel=50
key=D3
loop_mode=one_shot
lovel=26
sample=Show_Style_Tenor_Solo_Hit_MP_RR_8.opus
</region>

<region>
hivel=25
key=D3
loop_mode=one_shot
lovel=0
sample=Show_Style_Tenor_Solo_Hit_P_RR_8.opus
</region>
</group>

<group>
group_label=MainHit_RR9
seq_length=10
seq_position=9

<region>
hivel=100
key=D3
loop_mode=one_shot
lovel=76
sample=Show_Style_Tenor_Solo_Hit_F_RR_9.opus
</region>

<region>
hivel=127
key=D3
loop_mode=one_shot
lovel=101
sample=Show_Style_Tenor_Solo_Hit_FF_RR_9.opus
</region>

<region>
hivel=75
key=D3
loop_mode=one_shot
lovel=51
sample=Show_Style_Tenor_Solo_Hit_MF_RR_9.opus
</region>

<region>
hivel=50
key=D3
loop_mode=one_shot
lovel=26
sample=Show_Style_Tenor_Solo_Hit_MP_RR_9.opus
</region>

<region>
hivel=25
key=D3
loop_mode=one_shot
lovel=0
sample=Show_Style_Tenor_Solo_Hit_P_RR_9.opus
</region>
</group>

<group>
group_label=MainHit_RR10
seq_length=10
seq_position=10

<region>
hivel=100
key=D3
loop_mode=one_shot
lovel=76
sample=Show_Style_Tenor_Solo_Hit_F_RR_10.opus
</region>

<region>
hivel=127
key=D3
loop_mode=one_shot
lovel=101
sample=Show_Style_Tenor_Solo_Hit_FF_RR_10.opus
</region>

<region>
hivel=75
key=D3
loop_mode=one_shot
lovel=51
sample=Show_Style_Tenor_Solo_Hit_MF_RR_10.opus
</region>

<region>
hivel=50
key=D3
loop_mode=one_shot
lovel=26
sample=Show_Style_Tenor_Solo_Hit_MP_RR_10.opus
</region>

<region>
hivel=25
key=D3
loop_mode=one_shot
lovel=0
sample=Show_Style_Tenor_Solo_Hit_P_RR_10.opus
</region>
</group>

<group>
group_label=AltHit_RR1
seq_length=4
seq_position=1

<region>
hivel=100
key=E4
loop_mode=one_shot
lovel=76
sample=Show_Style_Tenor_Solo_Buzz_F_RR_1.opus
</region>

<region>
hivel=127
key=E4
loop_mode=one_shot
lovel=101
sample=Show_Style_Tenor_Solo_Buzz_FF_RR_1.opus
</region>

<region>
hivel=75
key=E4
loop_mode=one_shot
lovel=51
sample=Show_Style_Tenor_Solo_Buzz_MF_RR_1.opus
</region>

<region>
hivel=50
key=E4
loop_mode=one_shot
lovel=26
sample=Show_Style_Tenor_Solo_Buzz_MP_RR_1.opus
</region>

<region>
hivel=25
key=E4
loop_mode=one_shot
lovel=0
sample=Show_Style_Tenor_Solo_Buzz_P_RR_1.opus
</region>

<region>
hivel=100
key=D4
loop_mode=one_shot
lovel=76
sample=Show_Style_Tenor_Solo_Rim_F_RR_1.opus
</region>

<region>
hivel=127
key=D4
loop_mode=one_shot
lovel=101
sample=Show_Style_Tenor_Solo_Rim_FF_RR_1.opus
</region>

<region>
hivel=75
key=D4
loop_mode=one_shot
lovel=51
sample=Show_Style_Tenor_Solo_Rim_MF_RR_1.opus
</region>

<region>
hivel=50
key=D4
loop_mode=one_shot
lovel=26
sample=Show_Style_Tenor_Solo_Rim_MP_RR_1.opus
</region>

<region>
hivel=25
key=D4
loop_mode=one_shot
lovel=0
sample=Show_Style_Tenor_Solo_Rim_P_RR_1.opus
</region>

<region>
hivel=100
key=F5
loop_mode=one_shot
lovel=76
sample=Show_Style_Tenor_Solo_RimShot_F_RR_1.opus
</region>

<region>
hivel=127
key=F5
loop_mode=one_shot
lovel=101
sample=Show_Style_Tenor_Solo_RimShot_FF_RR_1.opus
</region>

<region>
hivel=75
key=F5
loop_mode=one_shot
lovel=51
sample=Show_Style_Tenor_Solo_RimShot_MF_RR_1.opus
</region>

<region>
hivel=50
key=F5
loop_mode=one_shot
lovel=26
sample=Show_Style_Tenor_Solo_RimShot_MP_RR_1.opus
</region>

<region>
hivel=25
key=F5
loop_mode=one_shot
lovel=0
sample=Show_Style_Tenor_Solo_RimShot_P_RR_1.opus
</region>

<region>
hivel=100
key=D#4
loop_mode=one_shot
lovel=76
sample=Show_Style_Tenor_Solo_Shell_F_RR_1.opus
</region>

<region>
hivel=127
key=D#4
loop_mode=one_shot
lovel=101
sample=Show_Style_Tenor_Solo_Shell_FF_RR_1.opus
</region>

<region>
hivel=75
key=D#4
loop_mode=one_shot
lovel=51
sample=Show_Style_Tenor_Solo_Shell_MF_RR_1.opus
</region>

<region>
hivel=50
key=D#4
loop_mode=one_shot
lovel=26
sample=Show_Style_Tenor_Solo_Shell_MP_RR_1.opus
</region>

<region>
hivel=25
key=D#4
loop_mode=one_shot
lovel=0
sample=Show_Style_Tenor_Solo_Shell_P_RR_1.opus
</region>

<region>
hivel=100
key=F4
loop_mode=one_shot
lovel=76
sample=Show_Style_Tenor_Solo_ShortBuzz_F_RR_1.opus
</region>

<region>
hivel=127
key=F4
loop_mode=one_shot
lovel=101
sample=Show_Style_Tenor_Solo_ShortBuzz_FF_RR_1.opus
</region>

<region>
hivel=75
key=F4
loop_mode=one_shot
lovel=51
sample=Show_Style_Tenor_Solo_ShortBuzz_MF_RR_1.opus
</region>

<region>
hivel=50
key=F4
loop_mode=one_shot
lovel=26
sample=Show_Style_Tenor_Solo_ShortBuzz_MP_RR_1.opus
</region>

<region>
hivel=25
key=F4
loop_mode=one_shot
lovel=0
sample=Show_Style_Tenor_Solo_ShortBuzz_P_RR_1.opus
</region>
</group>

<group>
group_label=AltHit_RR2
seq_length=4
seq_position=2

<region>
hivel=100
key=E4
loop_mode=one_shot
lovel=76
sample=Show_Style_Tenor_Solo_Buzz_F_RR_2.opus
</region>

<region>
hivel=127
key=E4
loop_mode=one_shot
lovel=101
sample=Show_Style_Tenor_Solo_Buzz_FF_RR_2.opus
</region>

<region>
hivel=75
key=E4
loop_mode=one_shot
lovel=51
sample=Show_Style_Tenor_Solo_Buzz_MF_RR_2.opus
</region>

<region>
hivel=50
key=E4
loop_mode=one_shot
lovel=26
sample=Show_Style_Tenor_Solo_Buzz_MP_RR_2.opus
</region>

<region>
hivel=25
key=E4
loop_mode=one_shot
lovel=0
sample=Show_Style_Tenor_Solo_Buzz_P_RR_2.opus
</region>

<region>
hivel=100
key=D4
loop_mode=one_shot
lovel=76
sample=Show_Style_Tenor_Solo_Rim_F_RR_2.opus
</region>

<region>
hivel=127
key=D4
loop_mode=one_shot
lovel=101
sample=Show_Style_Tenor_Solo_Rim_FF_RR_2.opus
</region>

<region>
hivel=75
key=D4
loop_mode=one_shot
lovel=51
sample=Show_Style_Tenor_Solo_Rim_MF_RR_2.opus
</region>

<region>
hivel=50
key=D4
loop_mode=one_shot
lovel=26
sample=Show_Style_Tenor_Solo_Rim_MP_RR_2.opus
</region>

<region>
hivel=25
key=D4
loop_mode=one_shot
lovel=0
sample=Show_Style_Tenor_Solo_Rim_P_RR_2.opus
</region>

<region>
hivel=100
key=F5
loop_mode=one_shot
lovel=76
sample=Show_Style_Tenor_Solo_RimShot_F_RR_2.opus
</region>

<region>
hivel=127
key=F5
loop_mode=one_shot
lovel=101
sample=Show_Style_Tenor_Solo_RimShot_FF_RR_2.opus
</region>

<region>
hivel=75
key=F5
loop_mode=one_shot
lovel=51
sample=Show_Style_Tenor_Solo_RimShot_MF_RR_2.opus
</region>

<region>
hivel=50
key=F5
loop_mode=one_shot
lovel=26
sample=Show_Style_Tenor_Solo_RimShot_MP_RR_2.opus
</region>

<region>
hivel=25
key=F5
loop_mode=one_shot
lovel=0
sample=Show_Style_Tenor_Solo_RimShot_P_RR_2.opus
</region>

<region>
hivel=100
key=D#4
loop_mode=one_shot
lovel=76
sample=Show_Style_Tenor_Solo_Shell_F_RR_2.opus
</region>

<region>
hivel=127
key=D#4
loop_mode=one_shot
lovel=101
sample=Show_Style_Tenor_Solo_Shell_FF_RR_2.opus
</region>

<region>
hivel=75
key=D#4
loop_mode=one_shot
lovel=51
sample=Show_Style_Tenor_Solo_Shell_MF_RR_2.opus
</region>

<region>
hivel=50
key=D#4
loop_mode=one_shot
lovel=26
sample=Show_Style_Tenor_Solo_Shell_MP_RR_2.opus
</region>

<region>
hivel=25
key=D#4
loop_mode=one_shot
lovel=0
sample=Show_Style_Tenor_Solo_Shell_P_RR_2.opus
</region>

<region>
hivel=100
key=F4
loop_mode=one_shot
lovel=76
sample=Show_Style_Tenor_Solo_ShortBuzz_F_RR_2.opus
</region>

<region>
hivel=127
key=F4
loop_mode=one_shot
lovel=101
sample=Show_Style_Tenor_Solo_ShortBuzz_FF_RR_2.opus
</region>

<region>
hivel=75
key=F4
loop_mode=one_shot
lovel=51
sample=Show_Style_Tenor_Solo_ShortBuzz_MF_RR_2.opus
</region>

<region>
hivel=50
key=F4
loop_mode=one_shot
lovel=26
sample=Show_Style_Tenor_Solo_ShortBuzz_MP_RR_2.opus
</region>

<region>
hivel=25
key=F4
loop_mode=one_shot
lovel=0
sample=Show_Style_Tenor_Solo_ShortBuzz_P_RR_2.opus
</region>
</group>

<group>
group_label=AltHit_RR3
seq_length=4
seq_position=3

<region>
hivel=100
key=E4
loop_mode=one_shot
lovel=76
sample=Show_Style_Tenor_Solo_Buzz_F_RR_3.opus
</region>

<region>
hivel=127
key=E4
loop_mode=one_shot
lovel=101
sample=Show_Style_Tenor_Solo_Buzz_FF_RR_3.opus
</region>

<region>
hivel=75
key=E4
loop_mode=one_shot
lovel=51
sample=Show_Style_Tenor_Solo_Buzz_MF_RR_3.opus
</region>

<region>
hivel=50
key=E4
loop_mode=one_shot
lovel=26
sample=Show_Style_Tenor_Solo_Buzz_MP_RR_3.opus
</region>

<region>
hivel=25
key=E4
loop_mode=one_shot
lovel=0
sample=Show_Style_Tenor_Solo_Buzz_P_RR_3.opus
</region>

<region>
hivel=100
key=D4
loop_mode=one_shot
lovel=76
sample=Show_Style_Tenor_Solo_Rim_F_RR_3.opus
</region>

<region>
hivel=127
key=D4
loop_mode=one_shot
lovel=101
sample=Show_Style_Tenor_Solo_Rim_FF_RR_3.opus
</region>

<region>
hivel=75
key=D4
loop_mode=one_shot
lovel=51
sample=Show_Style_Tenor_Solo_Rim_MF_RR_3.opus
</region>

<region>
hivel=50
key=D4
loop_mode=one_shot
lovel=26
sample=Show_Style_Tenor_Solo_Rim_MP_RR_3.opus
</region>

<region>
hivel=25
key=D4
loop_mode=one_shot
lovel=0
sample=Show_Style_Tenor_Solo_Rim_P_RR_3.opus
</region>

<region>
hivel=100
key=F5
loop_mode=one_shot
lovel=76
sample=Show_Style_Tenor_Solo_RimShot_F_RR_3.opus
</region>

<region>
hivel=127
key=F5
loop_mode=one_shot
lovel=101
sample=Show_Style_Tenor_Solo_RimShot_FF_RR_3.opus
</region>

<region>
hivel=75
key=F5
loop_mode=one_shot
lovel=51
sample=Show_Style_Tenor_Solo_RimShot_MF_RR_3.opus
</region>

<region>
hivel=50
key=F5
loop_mode=one_shot
lovel=26
sample=Show_Style_Tenor_Solo_RimShot_MP_RR_3.opus
</region>

<region>
hivel=25
key=F5
loop_mode=one_shot
lovel=0
sample=Show_Style_Tenor_Solo_RimShot_P_RR_3.opus
</region>

<region>
hivel=100
key=D#4
loop_mode=one_shot
lovel=76
sample=Show_Style_Tenor_Solo_Shell_F_RR_3.opus
</region>

<region>
hivel=127
key=D#4
loop_mode=one_shot
lovel=101
sample=Show_Style_Tenor_Solo_Shell_FF_RR_3.opus
</region>

<region>
hivel=75
key=D#4
loop_mode=one_shot
lovel=51
sample=Show_Style_Tenor_Solo_Shell_MF_RR_3.opus
</region>

<region>
hivel=50
key=D#4
loop_mode=one_shot
lovel=26
sample=Show_Style_Tenor_Solo_Shell_MP_RR_3.opus
</region>

<region>
hivel=25
key=D#4
loop_mode=one_shot
lovel=0
sample=Show_Style_Tenor_Solo_Shell_P_RR_3.opus
</region>

<region>
hivel=100
key=F4
loop_mode=one_shot
lovel=76
sample=Show_Style_Tenor_Solo_ShortBuzz_F_RR_3.opus
</region>

<region>
hivel=127
key=F4
loop_mode=one_shot
lovel=101
sample=Show_Style_Tenor_Solo_ShortBuzz_FF_RR_3.opus
</region>

<region>
hivel=75
key=F4
loop_mode=one_shot
lovel=51
sample=Show_Style_Tenor_Solo_ShortBuzz_MF_RR_3.opus
</region>

<region>
hivel=50
key=F4
loop_mode=one_shot
lovel=26
sample=Show_Style_Tenor_Solo_ShortBuzz_MP_RR_3.opus
</region>

<region>
hivel=25
key=F4
loop_mode=one_shot
lovel=0
sample=Show_Style_Tenor_Solo_ShortBuzz_P_RR_3.opus
</region>
</group>

<group>
group_label=AltHit_RR4
seq_length=4
seq_position=4

<region>
hivel=100
key=E4
loop_mode=one_shot
lovel=76
sample=Show_Style_Tenor_Solo_Buzz_F_RR_4.opus
</region>

<region>
hivel=127
key=E4
loop_mode=one_shot
lovel=101
sample=Show_Style_Tenor_Solo_Buzz_FF_RR_4.opus
</region>

<region>
hivel=75
key=E4
loop_mode=one_shot
lovel=51
sample=Show_Style_Tenor_Solo_Buzz_MF_RR_4.opus
</region>

<region>
hivel=50
key=E4
loop_mode=one_shot
lovel=26
sample=Show_Style_Tenor_Solo_Buzz_MP_RR_4.opus
</region>

<region>
hivel=25
key=E4
loop_mode=one_shot
lovel=0
sample=Show_Style_Tenor_Solo_Buzz_P_RR_4.opus
</region>

<region>
hivel=100
key=D4
loop_mode=one_shot
lovel=76
sample=Show_Style_Tenor_Solo_Rim_F_RR_4.opus
</region>

<region>
hivel=127
key=D4
loop_mode=one_shot
lovel=101
sample=Show_Style_Tenor_Solo_Rim_FF_RR_4.opus
</region>

<region>
hivel=75
key=D4
loop_mode=one_shot
lovel=51
sample=Show_Style_Tenor_Solo_Rim_MF_RR_4.opus
</region>

<region>
hivel=50
key=D4
loop_mode=one_shot
lovel=26
sample=Show_Style_Tenor_Solo_Rim_MP_RR_4.opus
</region>

<region>
hivel=25
key=D4
loop_mode=one_shot
lovel=0
sample=Show_Style_Tenor_Solo_Rim_P_RR_4.opus
</region>

<region>
hivel=100
key=F5
loop_mode=one_shot
lovel=76
sample=Show_Style_Tenor_Solo_RimShot_F_RR_4.opus
</region>

<region>
hivel=127
key=F5
loop_mode=one_shot
lovel=101
sample=Show_Style_Tenor_Solo_RimShot_FF_RR_4.opus
</region>

<region>
hivel=75
key=F5
loop_mode=one_shot
lovel=51
sample=Show_Style_Tenor_Solo_RimShot_MF_RR_4.opus
</region>

<region>
hivel=50
key=F5
loop_mode=one_shot
lovel=26
sample=Show_Style_Tenor_Solo_RimShot_MP_RR_4.opus
</region>

<region>
hivel=25
key=F5
loop_mode=one_shot
lovel=0
sample=Show_Style_Tenor_Solo_RimShot_P_RR_4.opus
</region>

<region>
hivel=100
key=D#4
loop_mode=one_shot
lovel=76
sample=Show_Style_Tenor_Solo_Shell_F_RR_4.opus
</region>

<region>
hivel=127
key=D#4
loop_mode=one_shot
lovel=101
sample=Show_Style_Tenor_Solo_Shell_FF_RR_4.opus
</region>

<region>
hivel=75
key=D#4
loop_mode=one_shot
lovel=51
sample=Show_Style_Tenor_Solo_Shell_MF_RR_4.opus
</region>

<region>
hivel=50
key=D#4
loop_mode=one_shot
lovel=26
sample=Show_Style_Tenor_Solo_Shell_MP_RR_4.opus
</region>

<region>
hivel=25
key=D#4
loop_mode=one_shot
lovel=0
sample=Show_Style_Tenor_Solo_Shell_P_RR_4.opus
</region>

<region>
hivel=100
key=F4
loop_mode=one_shot
lovel=76
sample=Show_Style_Tenor_Solo_ShortBuzz_F_RR_4.opus
</region>

<region>
hivel=127
key=F4
loop_mode=one_shot
lovel=101
sample=Show_Style_Tenor_Solo_ShortBuzz_FF_RR_4.opus
</region>

<region>
hivel=75
key=F4
loop_mode=one_shot
lovel=51
sample=Show_Style_Tenor_Solo_ShortBuzz_MF_RR_4.opus
</region>

<region>
hivel=50
key=F4
loop_mode=one_shot
lovel=26
sample=Show_Style_Tenor_Solo_ShortBuzz_MP_RR_4.opus
</region>

<region>
hivel=25
key=F4
loop_mode=one_shot
lovel=0
sample=Show_Style_Tenor_Solo_ShortBuzz_P_RR_4.opus
</region>
</group>

<group>
group_label=Rolls_RR1
seq_length=2
seq_position=1

<region>
end=118861
hivel=127
key=F2
loop_end=114481
loop_mode=loop_continuous
loop_start=39220
loop_xfade=29415
lovel=1
sample=Show_Style_Tenor_Solo_RimBuzzRoll_F_RR_1.opus
</region>

<region>
hivel=127
key=F2
loop_end=135001
loop_mode=loop_continuous
loop_start=39861
loop_xfade=29896
lovel=96
sample=Show_Style_Tenor_Solo_RimBuzzRoll_FF_RR_1.opus
</region>

<region>
hivel=95
key=F2
loop_end=121540
loop_mode=loop_continuous
loop_start=39734
loop_xfade=29800
lovel=64
sample=Show_Style_Tenor_Solo_RimBuzzRoll_MF_RR_1.opus
</region>

<region>
hivel=63
key=F2
loop_end=125211
loop_mode=loop_continuous
loop_start=39211
loop_xfade=29409
lovel=32
sample=Show_Style_Tenor_Solo_RimBuzzRoll_MP_RR_1.opus
</region>

<region>
hivel=127
key=F2
loop_end=135751
loop_mode=loop_continuous
loop_start=38786
loop_xfade=29089
lovel=1
sample=Show_Style_Tenor_Solo_RimBuzzRoll_P_RR_1.opus
</region>

<region>
hivel=127
key=D2
loop_end=127921
loop_mode=loop_continuous
loop_start=51025
loop_xfade=38268
lovel=1
sample=Show_Style_Tenor_Solo_Roll_F_RR_1.opus
</region>

<region>
hivel=127
key=D2
loop_end=128149
loop_mode=loop_continuous
loop_start=41806
loop_xfade=31355
lovel=96
sample=Show_Style_Tenor_Solo_Roll_FF_RR_1.opus
</region>

<region>
hivel=95
key=D2
loop_end=135010
loop_mode=loop_continuous
loop_start=38574
loop_xfade=28930
lovel=64
sample=Show_Style_Tenor_Solo_Roll_MF_RR_1.opus
</region>

<region>
hivel=63
key=D2
loop_end=135390
loop_mode=loop_continuous
loop_start=38683
loop_xfade=29012
lovel=32
sample=Show_Style_Tenor_Solo_Roll_MP_RR_1.opus
</region>

<region>
hivel=127
key=D2
loop_end=125519
loop_mode=loop_continuous
loop_start=35862
loop_xfade=26897
lovel=1
sample=Show_Style_Tenor_Solo_Roll_P_RR_1.opus
</region>
</group>

<group>
group_label=Rolls_RR2
seq_length=2
seq_position=2

<region>
hivel=127
key=F2
loop_end=127786
loop_mode=loop_continuous
loop_start=36510
loop_xfade=27382
lovel=1
sample=Show_Style_Tenor_Solo_RimBuzzRoll_F_RR_2.opus
</region>

<region>
hivel=127
key=F2
loop_end=114048
loop_mode=loop_continuous
loop_start=47106
loop_xfade=35329
lovel=96
sample=Show_Style_Tenor_Solo_RimBuzzRoll_FF_RR_2.opus
</region>

<region>
hivel=95
key=F2
loop_end=126902
loop_mode=loop_continuous
loop_start=42347
loop_xfade=31761
lovel=64
sample=Show_Style_Tenor_Solo_RimBuzzRoll_MF_RR_2.opus
</region>

<region>
hivel=63
key=F2
loop_end=126030
loop_mode=loop_continuous
loop_start=40941
loop_xfade=30705
lovel=32
sample=Show_Style_Tenor_Solo_RimBuzzRoll_MP_RR_2.opus
</region>

<region>
hivel=127
key=F2
loop_end=133114
loop_mode=loop_continuous
loop_start=38032
loop_xfade=28524
lovel=1
sample=Show_Style_Tenor_Solo_RimBuzzRoll_P_RR_2.opus
</region>

<region>
hivel=127
key=D2
loop_end=128577
loop_mode=loop_continuous
loop_start=44950
loop_xfade=33712
lovel=1
sample=Show_Style_Tenor_Solo_Roll_F_RR_2.opus
</region>

<region>
hivel=127
key=D2
loop_end=127593
loop_mode=loop_continuous
loop_start=45055
loop_xfade=33791
lovel=96
sample=Show_Style_Tenor_Solo_Roll_FF_RR_2.opus
</region>

<region>
hivel=95
key=D2
loop_end=135186
loop_mode=loop_continuous
loop_start=38624
loop_xfade=28968
lovel=64
sample=Show_Style_Tenor_Solo_Roll_MF_RR_2.opus
</region>

<region>
hivel=63
key=D2
loop_end=134341
loop_mode=loop_continuous
loop_start=38383
loop_xfade=28787
lovel=32
sample=Show_Style_Tenor_Solo_Roll_MP_RR_2.opus
</region>

<region>
hivel=127
key=D2
loop_end=140679
loop_mode=loop_continuous
loop_start=40194
loop_xfade=30145
lovel=1
sample=Show_Style_Tenor_Solo_Roll_P_RR_2.opus
</region>
</group>

<group>
group_label=Manuals_RR1
seq_length=2
seq_position=1

<region>
hivel=100
key=C1
loop_mode=one_shot
lovel=76
sample=Show_Style_Tenor_Solo_SticksIn_F_RR_1.opus
</region>

<region>
hivel=127
key=C1
loop_mode=one_shot
lovel=101
sample=Show_Style_Tenor_Solo_SticksIn_FF_RR_1.opus
</region>

<region>
hivel=75
key=C1
loop_mode=one_shot
lovel=51
sample=Show_Style_Tenor_Solo_SticksIn_MF_RR_1.opus
</region>

<region>
hivel=50
key=C1
loop_mode=one_shot
lovel=26
sample=Show_Style_Tenor_Solo_SticksIn_MP_RR_1.opus
</region>

<region>
hivel=25
key=C1
loop_mode=one_shot
lovel=0
sample=Show_Style_Tenor_Solo_SticksIn_P_RR_1.opus
</region>
</group>

<group>
group_label=Manuals_RR2
seq_length=2
seq_position=2

<region>
hivel=100
key=C1
loop_mode=one_shot
lovel=76
sample=Show_Style_Tenor_Solo_SticksIn_F_RR_2.opus
</region>

<region>
hivel=127
key=C1
loop_mode=one_shot
lovel=101
sample=Show_Style_Tenor_Solo_SticksIn_FF_RR_2.opus
</region>

<region>
hivel=75
key=C1
loop_mode=one_shot
lovel=51
sample=Show_Style_Tenor_Solo_SticksIn_MF_RR_2.opus
</region>

<region>
hivel=50
key=C1
loop_mode=one_shot
lovel=26
sample=Show_Style_Tenor_Solo_SticksIn_MP_RR_2.opus
</region>

<region>
hivel=25
key=C1
loop_mode=one_shot
lovel=0
sample=Show_Style_Tenor_Solo_SticksIn_P_RR_2.opus
</region>
</group>